<svg width="100" height="100" viewBox="0 0 100 100" fill="none" xmlns="http://www.w3.org/2000/svg">
<rect width="100" height="100" fill="#322F20"/>
<path d="M19.1579 62H4.94994C4.94994 55.088 9.65394 46.352 12.8699 41.456C13.9259 39.824 15.2699 38.096 16.5179 36.56C15.2699 32.528 14.4059 30.464 12.2459 30.464V29.216C21.9419 29.216 26.8859 34.88 28.6619 40.256C30.7259 46.4 31.7339 52.112 33.6539 56.576C34.8539 59.312 37.3019 59.504 38.8379 57.872L39.6539 58.736C37.7339 61.424 34.6619 62.336 32.2139 62.336C26.9339 62.336 23.0939 57.92 21.5099 53.216H14.3579C15.4139 56.672 17.2379 59.888 19.1579 62ZM21.1259 52.064C19.6859 47.648 18.3419 42.416 16.9499 37.904C16.3739 38.72 15.7979 39.488 15.2219 40.352C13.0619 43.616 13.0139 47.984 14.0699 52.064H21.1259ZM78.6892 62H64.4812C64.4812 55.088 69.1852 46.352 72.4012 41.456C73.4572 39.824 74.8012 38.096 76.0492 36.56C74.8012 32.528 73.9372 30.464 71.7772 30.464V29.216C81.4732 29.216 86.4172 34.88 88.1932 40.256C90.2572 46.4 91.2652 52.112 93.1852 56.576C94.3852 59.312 96.8332 59.504 98.3692 57.872L99.1852 58.736C97.2652 61.424 94.1932 62.336 91.7452 62.336C86.4652 62.336 82.6252 57.92 81.0412 53.216H73.8892C74.9452 56.672 76.7692 59.888 78.6892 62ZM80.6572 52.064C79.2172 47.648 77.8732 42.416 76.4812 37.904C75.9052 38.72 75.3292 39.488 74.7532 40.352C72.5932 43.616 72.5452 47.984 73.6012 52.064H80.6572Z" fill="#F4B942"/>
<path d="M50.0032 29.168C59.0272 29.168 66.2752 36.56 66.2752 45.728C66.2752 54.896 59.0272 62.336 50.0032 62.336C41.0272 62.336 33.7312 54.896 33.7312 45.728C33.7312 36.56 41.0272 29.168 50.0032 29.168ZM58.1152 58.784C60.8512 57.056 59.5072 49.808 54.9952 42.656C50.5312 35.456 44.6752 30.992 41.8912 32.72C39.1552 34.448 40.5472 41.648 45.0112 48.848C49.4752 56.048 55.3792 60.464 58.1152 58.784Z" fill="#ADBC91"/>
</svg>
